# xmcd
#
# Track frame offsets: 
#        150
#        18058
#        52203
#        68890
#        93124
#        107374
#        127174
#        147557
#        182825
#        200150
#        224602
#        255437
#        269803
#        298116
#        313578
#        336633
#
# Disc length: 4785 seconds
#
# Revision: 2
# Processed by: cddbd v1.5.2PL0 Copyright (c) Steve Scherf et al.
# Submitted via: ExactAudioCopy v1.3
#
DISCID=0c12af10
DTITLE=Various Artist - Akella Presents - vol.37 - Blues-Rock  CD2
DYEAR=2013
DGENRE=Blues-Rock
TTITLE0=Vargas Blues Band - Sin City
TTITLE1=Michael Lee Firkins - Last Call
TTITLE2=Jackyl - Rock-A-Ho
TTITLE3=David Shelley and Bluestone - Trick Bag
TTITLE4=Small Jackets - Leave Me Alone
TTITLE5=Dave Evans and Nitzinger - Where She Goes I Go
TTITLE6=Tony Spinner - Getcha Back
TTITLE7=The Joe Richardson Express - Come Home Baby
TTITLE8=Rob Tognoni - If The Weather Get's Ruff
TTITLE9=Rhino Bucket - Bird On A Wire
TTITLE10=Innes Sibun - Double Trouble
TTITLE11=Legba's Mojo - Devil With A Halo
TTITLE12=WILD T. and The SPIRIT - I'll Play the Blues For You
TTITLE13=Cry Of Love - Gotta Love Me
TTITLE14=Danny Johnson - Backstreet Cabaret
TTITLE15=Michael Katon - Where The Wild Ones Go
EXTD=
EXTT0=
EXTT1=
EXTT2=
EXTT3=
EXTT4=
EXTT5=
EXTT6=
EXTT7=
EXTT8=
EXTT9=
EXTT10=
EXTT11=
EXTT12=
EXTT13=
EXTT14=
EXTT15=
PLAYORDER=
